<svg id="Layer_1" data-name="Layer 1" xmlns="http://www.w3.org/2000/svg" viewBox="0 0 25 25"><defs><style>.cls-1,.cls-3{fill:none;stroke:#23366a;stroke-linecap:round;stroke-linejoin:round;}.cls-1{stroke-width:1.6px;}.cls-2{fill:#23366a;fill-rule:evenodd;}</style></defs><path class="cls-1" d="M10.58,16a20.76,20.76,0,0,0-7.85,1.56,2.31,2.31,0,0,0-1.36,2.11v4h10M6,6.74a5.38,5.38,0,0,1,10.75,0c0,3-2.4,6.14-5.37,6.14S6,9.71,6,6.74Z"/><path class="cls-2" d="M20.34,19.94a1.64,1.64,0,0,1,.62-.26v-.39a.36.36,0,1,1,.71,0v.39a1.64,1.64,0,0,1,.62.26l.28-.28a.35.35,0,0,1,.5.5l-.27.28a1.76,1.76,0,0,1,.25.62h.39a.36.36,0,1,1,0,.71h-.39a1.74,1.74,0,0,1-.25.63l.27.27a.35.35,0,0,1-.5.5l-.28-.27a1.81,1.81,0,0,1-.62.26v.39a.36.36,0,0,1-.71,0v-.39a1.81,1.81,0,0,1-.62-.26l-.28.27a.35.35,0,0,1-.5-.5l.28-.27a1.59,1.59,0,0,1-.26-.63h-.39a.36.36,0,1,1,0-.71h.39a1.61,1.61,0,0,1,.26-.62l-.28-.28a.35.35,0,0,1,.5-.5Zm.23.72a1.07,1.07,0,0,1,.75-.31,1,1,0,0,1,.74.31h0a1.1,1.1,0,0,1,.3.75,1.08,1.08,0,0,1-.3.74h0a1,1,0,0,1-.74.3,1.06,1.06,0,0,1-.75-.3h0a1,1,0,0,1-.31-.74,1.07,1.07,0,0,1,.31-.75h0Z"/><path class="cls-3" d="M16,18.18h3.44M16,19.9h1.72M16,21.62h1.72m1.38-6.88a1,1,0,0,0-2.06,0H16v1.38h4.13V14.74ZM18.4,24H13.93v-9h.69m6.88,0h.68v2.65"/></svg>